<svg width="1172" height="103" viewBox="0 0 1172 103" fill="none" xmlns="http://www.w3.org/2000/svg">
<path d="M59.1942 101H36.9687V21.729H0.07438V1.7261H96.0885V21.729H59.1942V101ZM179.772 101H100.946V82.0342L132.802 56.6972L148.36 46.9179V45.4362L132.802 46.3253H103.168V26.7668H177.55V45.8808L143.174 72.4032L129.098 81.1452V82.6269L143.174 81.5897H179.772V101ZM210.786 101H188.561V1.7261H210.786V54.3264H227.677L246.643 26.7668H273.017L245.902 62.624L272.573 101H246.347L227.826 74.1812H210.786V101ZM301.236 102.482C285.233 102.482 275.602 95.0732 275.602 82.6269C275.602 71.6623 283.752 64.8465 299.606 63.2166L331.462 59.9569V57.1417C331.462 47.5106 327.165 44.8436 315.312 44.8436C304.051 44.8436 299.458 47.807 299.458 56.2527V56.8453H277.084V56.4008C277.084 38.0277 292.494 25.2851 316.942 25.2851C341.686 25.2851 353.392 38.0277 353.392 57.438V101H332.648V83.9604H331.462C328.054 95.5177 317.683 102.482 301.236 102.482ZM297.976 81.1452C297.976 85.1458 301.088 86.7757 307.607 86.7757C322.72 86.7757 330.87 83.2196 331.462 72.6995L305.681 75.6629C300.347 76.1074 297.976 77.5891 297.976 81.1452ZM386.883 101H364.657V26.7668H385.253V46.4734H386.586C388.661 34.4717 396.514 25.2851 411.479 25.2851C428.074 25.2851 434.89 36.6942 434.89 51.2149V63.513H412.664V55.8081C412.664 47.6588 409.404 44.1027 400.366 44.1027C390.439 44.1027 386.883 48.696 386.883 58.0307V101ZM484.618 72.8477C472.913 72.8477 463.133 64.8465 463.133 51.363C463.133 37.8796 472.913 29.8784 484.618 29.8784C496.472 29.8784 506.103 37.8796 506.103 51.363C506.103 64.8465 496.472 72.8477 484.618 72.8477ZM589.116 102.482C556.371 102.482 536.071 82.3306 536.071 51.363C536.071 20.3955 556.371 0.2444 589.116 0.2444C619.935 0.2444 639.79 15.6541 639.79 40.843V43.0655H615.046V40.843C615.046 27.804 607.637 21.5809 589.561 21.5809C567.78 21.5809 559.63 29.2857 559.63 51.363C559.63 73.4404 567.78 81.1452 589.561 81.1452C607.637 81.1452 615.046 74.9221 615.046 61.8831V59.6606H639.79V61.8831C639.79 87.072 620.084 102.482 589.116 102.482ZM671.647 101H649.421V26.7668H670.017V46.4734H671.35C673.425 34.4717 681.278 25.2851 696.243 25.2851C712.838 25.2851 719.654 36.6942 719.654 51.2149V63.513H697.428V55.8081C697.428 47.6588 694.169 44.1027 685.13 44.1027C675.203 44.1027 671.647 48.696 671.647 58.0307V101ZM767.116 102.482C742.371 102.482 725.48 90.3318 725.48 63.9575C725.48 40.2503 742.223 25.2851 766.671 25.2851C790.971 25.2851 807.122 38.0277 807.122 61.2904C807.122 63.9575 806.825 65.8837 806.529 68.4026H746.076C746.668 79.8117 752.002 84.7013 766.375 84.7013C779.562 84.7013 784.155 81.2934 784.155 74.9221V73.4404H806.381V75.0702C806.381 91.2208 790.675 102.482 767.116 102.482ZM766.227 42.621C753.04 42.621 747.409 47.0661 746.372 56.6972H785.785C785.192 46.9179 779.266 42.621 766.227 42.621ZM839.365 102.482C823.362 102.482 813.731 95.0732 813.731 82.6269C813.731 71.6623 821.881 64.8465 837.735 63.2166L869.591 59.9569V57.1417C869.591 47.5106 865.295 44.8436 853.441 44.8436C842.18 44.8436 837.587 47.807 837.587 56.2527V56.8453H815.213V56.4008C815.213 38.0277 830.623 25.2851 855.071 25.2851C879.815 25.2851 891.521 38.0277 891.521 57.438V101H870.777V83.9604H869.591C866.184 95.5177 855.812 102.482 839.365 102.482ZM836.105 81.1452C836.105 85.1458 839.217 86.7757 845.736 86.7757C860.849 86.7757 868.999 83.2196 869.591 72.6995L843.81 75.6629C838.476 76.1074 836.105 77.5891 836.105 81.1452ZM955.09 101H936.717C919.381 101 908.861 92.8506 908.861 74.1812V45.1399H897.156V26.7668H908.861V12.3943H931.087V26.7668H955.09V45.1399H931.087V71.6623C931.087 79.0708 933.902 80.997 941.755 80.997H955.09V101ZM985.64 19.2102H963.414V1.7261H985.64V19.2102ZM985.64 101H963.414V26.7668H985.64V101ZM1052.54 101H1025.13L991.347 26.7668H1016.09L1038.32 79.3672H1039.8L1062.17 26.7668H1086.47L1052.54 101ZM1131.75 102.482C1107.01 102.482 1090.12 90.3318 1090.12 63.9575C1090.12 40.2503 1106.86 25.2851 1131.31 25.2851C1155.61 25.2851 1171.76 38.0277 1171.76 61.2904C1171.76 63.9575 1171.46 65.8837 1171.17 68.4026H1110.71C1111.31 79.8117 1116.64 84.7013 1131.01 84.7013C1144.2 84.7013 1148.79 81.2934 1148.79 74.9221V73.4404H1171.02V75.0702C1171.02 91.2208 1155.31 102.482 1131.75 102.482ZM1130.86 42.621C1117.68 42.621 1112.05 47.0661 1111.01 56.6972H1150.42C1149.83 46.9179 1143.9 42.621 1130.86 42.621Z" fill="black"/>
</svg>
